Format : AVI
Format/Info : Audio Video Interleave
Format profile : OpenDML
File size : 1.25 GiB
Duration : 1h 39mn
Overall bit rate : 1 804 Kbps


Video
ID : 0
Format : MPEG-4 Visual
Format profile : Advanced Simple@L5
Format settings, BVOP : 1
Format settings, QPel : No
Format settings, GMC : No warppoints
Format settings, Matrix : Default (H.263)
Codec ID : XVID
Codec ID/Hint : XviD
Duration : 1h 39mn
Bit rate : 1 663 Kbps
Width : 624 pixels
Height : 352 pixels
Display aspect ratio : 16:9
Frame rate : 23.976 fps
Color space : YUV
Chroma subsampling : 4:2:0
Bit depth : 8 bits
Scan type : Progressive
Compression mode : Lossy
Bits/(Pixel*Frame) : 0.316
Stream size : 1.15 GiB (92%)
Writing library : XviD 63

Audio
ID : 1
Format : MPEG Audio
Format version : Version 1
Format profile : Layer 3
Mode : Joint stereo
Mode extension : MS Stereo
Codec ID : 55
Codec ID/Hint : MP3
Duration : 1h 39mn
Bit rate mode : Variable
Bit rate : 128 Kbps
Channel(s) : 2 channels
Sampling rate : 48.0 KHz
Compression mode : Lossy
Stream size : 1.56 MiB (0%)
Alignment : Aligned on interleaves
Interleave, duration : 1358 ms (32.55 video frames)
Interleave, preload duration : 192 ms



 
http://www.imdb.com/title/tt1502404/








Users: (6,160 votes) 66 reviews | Critics: 184 reviews Metascore: 44/100 (based on 21 reviews from Metacritic.com)

A vengeful father escapes from hell and chases after the men who killed his daughter and kidnapped his granddaughter.

Director:
Patrick Lussier
Writers:
Todd Farmer, Patrick Lussier
Stars:
Nicolas Cage, Amber Heard and William Fichtner














Source ............Defaced ............... Thanks



Enjoy !




Greetz to IMAGiNE,Flawl3ss,DiLLoN,BDK,NOiR,TOXiCiNK,THC,Ez,Rx,Boobyblue,TaRiQ786,LKRG,CrEwSaDe